<mxfile host="app.diagrams.net" modified="2022-12-09T19:23:11.654Z" agent="5.0 (X11)" etag="2H9ju_LoCEex7IviGq_J" version="20.6.0" type="github">
  <diagram id="R2lEEEUBdFMjLlhIrx00" name="Page-1">
    <mxGraphModel dx="579" dy="395" grid="1" gridSize="10" guides="1" tooltips="1" connect="1" arrows="1" fold="1" page="1" pageScale="1" pageWidth="1169" pageHeight="827" math="0" shadow="0" extFonts="Permanent Marker^https://fonts.googleapis.com/css?family=Permanent+Marker">
      <root>
        <mxCell id="0" />
        <mxCell id="1" parent="0" />
        <mxCell id="4C0YP1yC5MJ9k8y5jR9u-1" value="Airline" style="whiteSpace=wrap;html=1;align=center;" vertex="1" parent="1">
          <mxGeometry x="230" y="160" width="100" height="40" as="geometry" />
        </mxCell>
        <mxCell id="4C0YP1yC5MJ9k8y5jR9u-2" value="Airplane" style="whiteSpace=wrap;html=1;" vertex="1" parent="1">
          <mxGeometry x="570" y="150" width="120" height="60" as="geometry" />
        </mxCell>
        <mxCell id="4C0YP1yC5MJ9k8y5jR9u-4" value="Has" style="shape=rhombus;perimeter=rhombusPerimeter;whiteSpace=wrap;html=1;align=center;" vertex="1" parent="1">
          <mxGeometry x="390" y="190" width="120" height="60" as="geometry" />
        </mxCell>
        <mxCell id="4C0YP1yC5MJ9k8y5jR9u-6" value="" style="edgeStyle=entityRelationEdgeStyle;fontSize=12;html=1;endArrow=ERone;endFill=1;rounded=0;entryX=1;entryY=0.5;entryDx=0;entryDy=0;exitX=0;exitY=0.5;exitDx=0;exitDy=0;" edge="1" parent="1" source="4C0YP1yC5MJ9k8y5jR9u-4" target="4C0YP1yC5MJ9k8y5jR9u-1">
          <mxGeometry width="100" height="100" relative="1" as="geometry">
            <mxPoint x="350" y="220" as="sourcePoint" />
            <mxPoint x="395" y="200" as="targetPoint" />
          </mxGeometry>
        </mxCell>
        <mxCell id="4C0YP1yC5MJ9k8y5jR9u-12" value="" style="edgeStyle=entityRelationEdgeStyle;fontSize=12;html=1;endArrow=ERmany;rounded=0;entryX=-0.022;entryY=0.483;entryDx=0;entryDy=0;entryPerimeter=0;exitX=1.025;exitY=0.517;exitDx=0;exitDy=0;exitPerimeter=0;" edge="1" parent="1" source="4C0YP1yC5MJ9k8y5jR9u-4" target="4C0YP1yC5MJ9k8y5jR9u-2">
          <mxGeometry width="100" height="100" relative="1" as="geometry">
            <mxPoint x="530" y="190" as="sourcePoint" />
            <mxPoint x="520" y="200" as="targetPoint" />
          </mxGeometry>
        </mxCell>
        <mxCell id="4C0YP1yC5MJ9k8y5jR9u-17" style="edgeStyle=orthogonalEdgeStyle;rounded=0;orthogonalLoop=1;jettySize=auto;html=1;" edge="1" parent="1" source="4C0YP1yC5MJ9k8y5jR9u-13" target="4C0YP1yC5MJ9k8y5jR9u-2">
          <mxGeometry relative="1" as="geometry" />
        </mxCell>
        <mxCell id="4C0YP1yC5MJ9k8y5jR9u-13" value="Model Number" style="ellipse;whiteSpace=wrap;html=1;align=center;" vertex="1" parent="1">
          <mxGeometry x="710" y="95" width="90" height="30" as="geometry" />
        </mxCell>
        <mxCell id="4C0YP1yC5MJ9k8y5jR9u-22" style="edgeStyle=orthogonalEdgeStyle;rounded=0;orthogonalLoop=1;jettySize=auto;html=1;" edge="1" parent="1" source="4C0YP1yC5MJ9k8y5jR9u-14" target="4C0YP1yC5MJ9k8y5jR9u-2">
          <mxGeometry relative="1" as="geometry" />
        </mxCell>
        <mxCell id="4C0YP1yC5MJ9k8y5jR9u-14" value="Capacity" style="ellipse;whiteSpace=wrap;html=1;align=center;" vertex="1" parent="1">
          <mxGeometry x="520" y="95" width="90" height="30" as="geometry" />
        </mxCell>
        <mxCell id="4C0YP1yC5MJ9k8y5jR9u-16" value="" style="edgeStyle=orthogonalEdgeStyle;rounded=0;orthogonalLoop=1;jettySize=auto;html=1;" edge="1" parent="1" source="4C0YP1yC5MJ9k8y5jR9u-15" target="4C0YP1yC5MJ9k8y5jR9u-2">
          <mxGeometry relative="1" as="geometry" />
        </mxCell>
        <mxCell id="4C0YP1yC5MJ9k8y5jR9u-15" value="Registration Number" style="ellipse;whiteSpace=wrap;html=1;align=center;fontStyle=4;" vertex="1" parent="1">
          <mxGeometry x="600" y="60" width="100" height="40" as="geometry" />
        </mxCell>
        <mxCell id="4C0YP1yC5MJ9k8y5jR9u-25" value="" style="edgeStyle=orthogonalEdgeStyle;rounded=0;orthogonalLoop=1;jettySize=auto;html=1;" edge="1" parent="1" source="4C0YP1yC5MJ9k8y5jR9u-23" target="4C0YP1yC5MJ9k8y5jR9u-24">
          <mxGeometry relative="1" as="geometry" />
        </mxCell>
        <mxCell id="4C0YP1yC5MJ9k8y5jR9u-27" value="" style="edgeStyle=orthogonalEdgeStyle;rounded=0;orthogonalLoop=1;jettySize=auto;html=1;" edge="1" parent="1" source="4C0YP1yC5MJ9k8y5jR9u-23" target="4C0YP1yC5MJ9k8y5jR9u-26">
          <mxGeometry relative="1" as="geometry" />
        </mxCell>
        <mxCell id="4C0YP1yC5MJ9k8y5jR9u-29" value="" style="edgeStyle=orthogonalEdgeStyle;rounded=0;orthogonalLoop=1;jettySize=auto;html=1;" edge="1" parent="1" source="4C0YP1yC5MJ9k8y5jR9u-23" target="4C0YP1yC5MJ9k8y5jR9u-28">
          <mxGeometry relative="1" as="geometry" />
        </mxCell>
        <mxCell id="4C0YP1yC5MJ9k8y5jR9u-23" value="&lt;div&gt;Passenger&lt;/div&gt;" style="whiteSpace=wrap;html=1;align=center;" vertex="1" parent="1">
          <mxGeometry x="440" y="414" width="100" height="40" as="geometry" />
        </mxCell>
        <mxCell id="4C0YP1yC5MJ9k8y5jR9u-24" value="Name" style="ellipse;whiteSpace=wrap;html=1;" vertex="1" parent="1">
          <mxGeometry x="600" y="320" width="120" height="60" as="geometry" />
        </mxCell>
        <mxCell id="4C0YP1yC5MJ9k8y5jR9u-26" value="Surname" style="ellipse;whiteSpace=wrap;html=1;" vertex="1" parent="1">
          <mxGeometry x="430" y="524" width="120" height="60" as="geometry" />
        </mxCell>
        <mxCell id="4C0YP1yC5MJ9k8y5jR9u-28" value="Email address" style="ellipse;whiteSpace=wrap;html=1;align=center;fontStyle=4;" vertex="1" parent="1">
          <mxGeometry x="290" y="414" width="100" height="40" as="geometry" />
        </mxCell>
      </root>
    </mxGraphModel>
  </diagram>
</mxfile>
